<svg xmlns="http://www.w3.org/2000/svg" xmlns:xlink="http://www.w3.org/1999/xlink" preserveAspectRatio="xMidYMid" width="50" height="30" viewBox="0 0 25 15">
  <defs>
    <style>
      .cls-1 {
        fill: #8c8c8c;
        fill-rule: evenodd;
      }
    </style>
  </defs>
  <path d="M24.994,8.009 C24.994,8.830 24.613,9.008 24.000,9.021 L24.000,9.000 L23.327,9.000 C23.060,8.983 22.775,8.964 22.466,8.964 L1.539,8.964 C0.445,8.928 0.000,8.947 0.000,8.000 C0.005,8.057 -0.015,7.410 -0.014,7.052 C-0.014,6.089 0.114,6.000 1.000,6.000 L2.000,6.000 L2.000,2.963 C2.000,2.762 1.999,2.565 2.000,2.375 L2.000,2.000 L2.011,2.000 C2.056,0.837 2.333,-0.000 3.969,-0.000 C5.626,-0.000 6.842,-0.018 7.000,-0.000 L6.993,0.969 C6.993,0.969 4.993,0.976 3.875,0.976 C3.123,0.976 2.979,1.391 2.963,2.000 L3.000,2.000 L3.000,6.000 L23.000,6.000 C24.923,6.000 24.999,6.051 25.000,7.000 C25.001,7.577 24.994,7.607 24.994,8.009 ZM24.000,7.000 L3.000,7.000 L3.000,7.000 L2.000,7.000 L2.000,7.000 L1.000,7.000 L1.000,8.000 L24.000,8.000 L24.000,7.000 ZM24.000,9.969 C24.000,12.730 21.761,13.969 19.000,13.969 L19.000,13.969 L19.000,15.000 L18.000,15.000 L18.000,13.969 L7.000,13.969 L7.000,15.000 L6.000,15.000 L6.000,13.969 C3.239,13.969 1.000,12.730 1.000,9.969 L1.000,9.000 L2.000,9.000 L2.000,10.000 C2.000,12.236 3.802,13.000 5.969,13.000 L6.000,13.000 L6.000,13.000 L7.000,13.000 L7.000,13.000 L18.000,13.000 L18.000,13.000 L18.970,13.000 C21.731,13.000 23.016,11.882 23.016,9.950 L23.000,9.000 L23.327,9.000 C23.574,9.016 23.799,9.025 24.000,9.021 L24.000,9.969 ZM9.000,5.000 L4.000,5.000 L4.000,4.000 L4.050,4.000 C4.249,3.021 5.021,2.254 6.000,2.055 L6.000,1.000 L7.000,1.000 L7.000,2.055 C7.979,2.254 8.751,3.021 8.950,4.000 L9.000,4.000 L9.000,4.499 C9.000,4.499 9.000,4.500 9.000,4.500 L9.000,4.500 L9.000,5.000 ZM6.500,3.000 C5.848,3.000 5.298,3.419 5.092,4.000 L7.908,4.000 C7.702,3.419 7.152,3.000 6.500,3.000 Z" class="cls-1"/>
</svg>
