<svg xmlns="http://www.w3.org/2000/svg" xmlns:xlink="http://www.w3.org/1999/xlink" preserveAspectRatio="xMidYMid" width="50" height="30" viewBox="0 0 25 15">
  <defs>
    <style>
      .cls-1 {
        fill: #8c8c8c;
        fill-rule: evenodd;
      }
    </style>
  </defs>
  <path d="M24.000,15.000 L24.000,12.000 L1.000,12.000 L1.000,15.000 L-0.000,15.000 L-0.000,12.000 L-0.000,11.000 L-0.000,9.000 L-0.000,6.000 L-0.000,-0.000 L1.000,-0.000 L1.000,4.277 C1.295,4.106 1.634,4.000 2.000,4.000 L5.000,4.000 C5.885,4.000 6.672,4.390 7.221,5.000 L24.000,5.000 L24.000,2.000 L25.000,2.000 L25.000,8.000 L25.000,9.000 L25.000,11.000 L25.000,12.000 L25.000,15.000 L24.000,15.000 ZM7.000,7.500 C7.000,6.119 5.993,5.000 4.750,5.000 L2.500,5.000 C1.672,5.000 1.000,5.746 1.000,6.667 L1.000,8.000 L7.000,8.000 L7.000,7.500 ZM24.000,6.000 L7.816,6.000 C7.928,6.314 8.000,6.647 8.000,7.000 L8.000,8.000 L24.000,8.000 L24.000,6.000 ZM24.000,9.000 L8.000,9.000 L7.000,9.000 L1.000,9.000 L1.000,11.000 L24.000,11.000 L24.000,9.000 Z" class="cls-1"/>
</svg>
