<svg xmlns="http://www.w3.org/2000/svg" width="17" height="17.438" viewBox="0 0 17 17.438">
  <defs>
    <style>
      .cls-1 {
        fill: #20c1ff;
        fill-rule: evenodd;
      }
    </style>
  </defs>
  <path id="calendar" class="cls-1" d="M771.592,167.39a1.311,1.311,0,0,0-.982-0.415h-3.5v-0.786a0.636,0.636,0,0,0-1.272,0v0.786h-4.732v-0.786a0.636,0.636,0,0,0-.648-0.636,0.626,0.626,0,0,0-.636.636v0.786H756.4a1.34,1.34,0,0,0-1,.415,1.377,1.377,0,0,0-.4.983V181.6a1.38,1.38,0,0,0,.4.993,1.341,1.341,0,0,0,1,.405H770.61a1.312,1.312,0,0,0,.982-0.405,1.377,1.377,0,0,0,.4-0.993V168.373a1.369,1.369,0,0,0-.4-0.983h0ZM771,181.876a0.1,0.1,0,0,1-.115.116H756.118a0.15,0.15,0,0,1-.128-0.116V173.01H771v8.866Zm0-9.9H755.99V168.14a0.108,0.108,0,0,1,.128-0.116h3.7v0.569a0.637,0.637,0,0,0,.636.646,0.646,0.646,0,0,0,.648-0.646v-0.569h4.732v0.569a0.636,0.636,0,1,0,1.272,0v-0.569h3.778a0.1,0.1,0,0,1,.115.116v3.832Zm0,0-12.892,2.147h2.8v2.764h-2.8v-2.764Z" transform="translate(-755 -165.562)"/>
</svg>
