<svg xmlns="http://www.w3.org/2000/svg" xmlns:xlink="http://www.w3.org/1999/xlink" preserveAspectRatio="xMidYMid" width="43.75" height="29.938" viewBox="0 0 21.875 14.969">
  <defs>
    <style>
      .cls-1 {
        fill: #8c8c8c;
        fill-rule: evenodd;
      }
    </style>
  </defs>
  <g>
    <path d="M0.000,14.969 L0.000,13.000 C0.000,10.239 2.239,8.000 5.000,8.000 L7.875,8.000 C10.637,8.000 12.875,10.239 12.875,13.000 L12.875,14.969 L0.000,14.969 ZM11.962,13.220 C11.962,10.865 10.053,8.957 7.698,8.957 L5.239,8.957 C2.884,8.957 0.976,10.865 0.976,13.220 L0.976,13.967 L0.969,14.000 L11.962,13.967 L11.962,13.220 ZM6.469,7.000 C4.536,7.000 2.969,5.433 2.969,3.500 C2.969,1.567 4.536,-0.000 6.469,-0.000 C8.402,-0.000 9.969,1.567 9.969,3.500 C9.969,5.433 8.402,7.000 6.469,7.000 ZM6.469,1.000 C5.088,1.000 3.969,2.119 3.969,3.500 C3.969,4.881 5.088,6.000 6.469,6.000 C7.850,6.000 8.969,4.881 8.969,3.500 C8.969,2.119 7.850,1.000 6.469,1.000 Z" class="cls-1"/>
    <path d="M14.969,14.969 L14.969,13.967 L20.962,13.967 L20.962,13.220 C20.962,10.865 19.053,8.957 16.698,8.957 L14.239,8.957 C14.135,8.957 14.038,8.980 13.936,8.987 C13.657,8.620 13.331,8.295 12.962,8.017 C13.298,7.946 13.644,7.906 14.000,7.906 L16.875,7.906 C19.637,7.906 21.875,10.145 21.875,12.906 L21.875,14.969 L14.969,14.969 ZM15.469,7.000 C13.536,7.000 11.969,5.433 11.969,3.500 C11.969,1.567 13.536,-0.000 15.469,-0.000 C17.402,-0.000 18.969,1.567 18.969,3.500 C18.969,5.433 17.402,7.000 15.469,7.000 ZM15.469,1.000 C14.088,1.000 12.969,2.119 12.969,3.500 C12.969,4.881 14.088,6.000 15.469,6.000 C16.850,6.000 17.969,4.881 17.969,3.500 C17.969,2.119 16.850,1.000 15.469,1.000 Z" class="cls-1"/>
  </g>
</svg>
