<svg xmlns="http://www.w3.org/2000/svg" width="20" height="18" viewBox="0 0 20 18">
    <path fill="#001871" fill-rule="nonzero" d="M4.947 0v.935C7.284.935 9.32 3.268 9.34 3.29l.662.775.66-.775c.02-.023 2.077-2.355 4.393-2.355 1.131 0 2.146.538 3.103 1.644.755.874 1.057 1.861.923 3.018-.245 2.12-1.952 4.785-4.936 7.708A43.724 43.724 0 0 1 10 16.859a43.725 43.725 0 0 1-4.145-3.554C2.872 10.382 1.165 7.717.92 5.598c-.134-1.158.168-2.145.924-3.019C2.8 1.473 3.816.935 4.947.935V0zm10.107 0C12.277 0 10 2.665 10 2.665S7.724 0 4.947 0C3.74 0 2.437.504 1.186 1.95-4.101 8.065 10.001 18 10.001 18s14.097-9.935 8.814-16.05C17.564.504 16.261 0 15.054 0z"/>
</svg>
