<?xml version="1.0" encoding="UTF-8"?>
<svg width="16px" height="21px" viewBox="0 0 16 21" version="1.1" xmlns="http://www.w3.org/2000/svg" xmlns:xlink="http://www.w3.org/1999/xlink">
    <!-- Generator: Sketch 64 (93537) - https://sketch.com -->
    <title>ui-pdf-icon</title>
    <desc>Created with Sketch.</desc>
    <g id="ui-pdf-icon" stroke="none" stroke-width="1" fill="none" fill-rule="evenodd">
        <path d="M0.439401957,0.000393430044 C0.189537816,0.0235740966 -0.00106685329,0.230601576 4.49400786e-06,0.477645175 L4.49400786e-06,20.5227244 C4.49400786e-06,20.7863036 0.217088955,21 0.484856398,21 L15.5151249,21 C15.7828924,21 15.9999863,20.7863036 15.9999863,20.5227244 L15.9999863,5.72755756 C16.0009674,5.59877655 15.9490538,5.47506436 15.8560211,5.38451571 L15.6742033,5.21303059 C15.6561895,5.18882909 15.6358978,5.16635336 15.6135974,5.14590177 L10.7651237,0.373265 C10.7530149,0.362706229 10.7403769,0.352750538 10.7272571,0.343435274 L10.5227,0.134627195 C10.4313353,0.0476274928 10.3089177,-0.000576553977 10.1818038,0.000393430044 L0.484856398,0.000393430044 C0.469713248,-0.000131143348 0.454545107,-0.000131143348 0.439401957,0.000393430044 L0.439401957,0.000393430044 Z M0.96970377,0.954920784 L9.93938015,0.954920784 L9.93938015,5.48891975 C9.93940024,5.75249895 10.1564601,5.96616901 10.4242275,5.96619536 L15.0302776,5.96619536 L15.0302776,20.0454726 L0.96970377,20.0454726 L0.96970377,0.954920784 Z M10.9090749,1.86470355 L14.1060373,5.01166801 L10.9090749,5.01166801 L10.9090749,1.86470355 L10.9090749,1.86470355 Z M7.48484033,7.63661227 C7.1455199,7.63661227 6.86884174,7.83771234 6.71211483,8.06914329 C6.55538792,8.30055037 6.47727901,8.57765658 6.47727901,8.87452201 C6.47727901,9.48211773 6.71546028,10.182262 7.06059888,10.895431 C6.77890256,11.7355793 6.39548525,12.6344563 5.98484377,13.4159951 C5.42724505,13.6410306 4.90290686,13.874299 4.50758656,14.1244153 C4.28462949,14.2654502 4.08746631,14.4112818 3.9318303,14.5793305 C3.77614581,14.7473316 3.63636432,14.9569749 3.63636432,15.2430061 C3.63636432,15.7820889 4.08867843,16.2273632 4.63636432,16.2273632 C5.17044564,16.2273632 5.48179038,15.8835339 5.81061387,15.4890895 C6.09844351,15.1438044 6.38244286,14.6715879 6.65909677,14.1766054 C7.41800412,13.889548 8.25780825,13.6343487 9.04544281,13.4532703 C9.58301733,13.8724615 10.1751614,14.1915441 10.8409054,14.1915441 C11.1920076,14.1915441 11.5200553,14.1257278 11.7954244,13.9901815 C12.0708419,13.8546353 12.363617,13.6056644 12.363617,13.207187 C12.363617,12.8086858 12.0708419,12.5522694 11.7954244,12.4166993 C11.5200553,12.2811769 11.1920076,12.2153606 10.8409054,12.2153606 C10.8384003,12.2153415 10.8358952,12.2153415 10.8333902,12.2153606 C10.3998397,12.2225197 9.86061669,12.3237499 9.31065432,12.431638 C8.85012204,11.9898717 8.43133513,11.4114376 8.10612375,10.8134112 C8.32893536,10.0919137 8.48491076,9.41983326 8.48491076,8.87452201 C8.48491076,8.57765658 8.40680185,8.30055037 8.25005069,8.06914329 C8.09334802,7.83771234 7.82423349,7.63661227 7.48491306,7.63661227 L7.48484033,7.63661227 Z M7.48484033,8.74028825 C7.49793121,8.7869658 7.51514329,8.81405119 7.51514329,8.87452201 C7.51514329,8.92647346 7.48997971,9.02109335 7.48484033,9.08330623 C7.47781004,9.02128426 7.44697375,8.92611551 7.44697375,8.87452201 C7.44697375,8.81364551 7.47167672,8.78715671 7.48484033,8.74028825 Z M7.68939744,11.9767228 C7.86304552,12.2337596 8.0618087,12.4600121 8.26515369,12.6926362 C7.9236272,12.7825311 7.59725219,12.8893931 7.25756812,12.998379 C7.41388292,12.6567928 7.55390684,12.3259931 7.68939744,11.9767228 Z M10.8409054,13.1698879 C10.8472084,13.1698879 10.849875,13.1698164 10.8559356,13.1698879 C10.9239112,13.1698879 10.9543839,13.1984768 11.0150383,13.207187 C10.9491718,13.2164939 10.91499,13.2370168 10.8408084,13.2370168 C10.7887358,13.2370168 10.7283723,13.1993836 10.6741179,13.1922483 C10.7194996,13.1898619 10.7990388,13.1707709 10.8408084,13.1698164 L10.8409054,13.1698879 Z M4.88634932,15.0416436 C4.78685864,15.1168145 4.63510142,15.2363959 4.6287984,15.2653904 C4.62613174,15.2653904 4.62322266,15.2653904 4.62128327,15.2653904 C4.62807113,15.2539358 4.62928325,15.2446289 4.65158623,15.2206219 C4.69296795,15.1759967 4.79977983,15.1060996 4.88642205,15.0416436 L4.88634932,15.0416436 Z" id="Shape" fill="#616185" fill-rule="nonzero"></path>
    </g>
</svg>