<svg xmlns="http://www.w3.org/2000/svg" width="16" height="19" viewBox="0 0 16 19">
  <defs>
    <style>
      .cls-1 {
        fill: none;
        stroke: #162e6f;
        stroke-linejoin: round;
        stroke-width: 1px;
        fill-rule: evenodd;
        opacity: 0.5;
      }
    </style>
  </defs>
  <path id="Phone" class="cls-1" d="M3274.82,1876.64l-1.59-2.27a0.916,0.916,0,0,0-1.35-.18l-1.06.87c-0.05-.04-0.11-0.09-0.17-0.14a9.791,9.791,0,0,1-2.01-2.08,10.647,10.647,0,0,1-1.31-2.66c-0.02-.07-0.05-0.14-0.07-0.21l0.71-.58,0.34-.28a1.1,1.1,0,0,0,.22-1.46l-1.59-2.27a0.927,0.927,0,0,0-1.36-.18l-0.59.49,0.01,0.02a3.474,3.474,0,0,0-.53.75,3.221,3.221,0,0,0-.29.8c-0.53,2.14.14,4.27,2.29,7.35,2.98,4.26,5.81,4.39,5.93,4.4a3.112,3.112,0,0,0,.79-0.1,2.779,2.779,0,0,0,.81-0.34l0.01,0.01,0.6-.48a1.1,1.1,0,0,0,.21-1.46h0Z" transform="translate(-3261.5 -1862.5)"/>
</svg>
