<?xml version="1.0" encoding="UTF-8"?>
<svg width="19px" height="19px" viewBox="0 0 19 19" version="1.1" xmlns="http://www.w3.org/2000/svg" xmlns:xlink="http://www.w3.org/1999/xlink">
    <!-- Generator: Sketch 64 (93537) - https://sketch.com -->
    <title>ui-share-icon</title>
    <desc>Created with Sketch.</desc>
    <g id="ui-share-icon" stroke="none" stroke-width="1" fill="none" fill-rule="evenodd">
        <path d="M15.563218,12.1266385 C14.3651129,12.1266385 13.3093548,12.7438135 12.6942047,13.6760556 L6.66662404,10.6624678 C6.79783447,10.2988043 6.87336147,9.90841273 6.87336147,9.5 C6.87336147,9.09158727 6.79803696,8.70119573 6.66662404,8.33753224 L12.6944071,5.32394441 C13.3097598,6.25618646 14.3653153,6.87336147 15.5634205,6.87336147 C17.4582774,6.87336147 19,5.33163885 19,3.43678198 C19,1.5419251 17.4582774,0 15.563218,0 C13.6681587,0 12.126436,1.54172262 12.126436,3.43657949 C12.126436,3.84499222 12.2017606,4.23497879 12.3331735,4.59864228 L6.30539037,7.61243259 C5.69003773,6.68039303 4.63468466,6.06342051 3.43678198,6.06342051 C1.54172262,6.06342051 0,7.60494064 0,9.5 C0,11.3950594 1.54172262,12.9365795 3.43657949,12.9365795 C4.63468466,12.9365795 5.69003773,12.3194045 6.30539037,11.3875674 L12.332971,14.4013577 C12.201963,14.7648187 12.126436,15.1550078 12.126436,15.563218 C12.126436,17.4580749 13.6681587,19 15.563218,19 C17.4582774,19 18.9997975,17.4582774 18.9997975,15.563218 C18.9997975,13.6681587 17.4582774,12.1266385 15.563218,12.1266385 Z M15.563218,0.80994096 C17.0113925,0.80994096 18.1898566,1.98820257 18.1898566,3.43657949 C18.1898566,4.88495641 17.0115949,6.06321802 15.563218,6.06321802 C14.1148411,6.06321802 12.936377,4.88495641 12.936377,3.43657949 C12.936377,1.98820257 14.1148411,0.80994096 15.563218,0.80994096 Z M3.43657949,12.1266385 C1.98820257,12.1266385 0.80994096,10.9483769 0.80994096,9.5 C0.80994096,8.05162308 1.98820257,6.87336147 3.43657949,6.87336147 C4.88495641,6.87336147 6.06321802,8.05162308 6.06321802,9.5 C6.06321802,10.9483769 4.88495641,12.1266385 3.43657949,12.1266385 Z M15.563218,18.1898566 C14.1148411,18.1898566 12.936377,17.0115949 12.936377,15.5630155 C12.936377,14.1148411 14.1146386,12.936377 15.563218,12.936377 C17.0113925,12.936377 18.1898566,14.1146386 18.1898566,15.5630155 C18.1898566,17.0115949 17.0115949,18.1898566 15.563218,18.1898566 Z" id="Shape" stroke="#001871" stroke-width="0.25" fill="#001871" fill-rule="nonzero"></path>
    </g>
</svg>